PathFileType	4	(X/Y/Z)	D:\TRACE\v60_Jaco2_6-2-23\JustBodyDRS_Motion1_1-platform.trc
DataRate	CameraRate	NumFrames	NumMarkers	Units	OrigDataRate	OrigDataStartFrame	OrigNumFrames
100.00	100.00	      55	5	mm	100.00	3751	      7500
Frame#	Time	Left_Front			Right_Front			Left_Aft			Right_Aft			Post			
		X1	Y1	Z1	X2	Y2	Z2	X3	Y3	Z3	X4	Y4	Z4	X5	Y5	Z5	

3751	37.500	-843.88959	26.05672	-634.24286	726.24896	26.71686	-639.45844	-751.89386	-3.94787	500.35330	690.24078	-5.27165	510.08969	-57.37162	1332.74524	-924.05389	
3752	37.510	-844.33630	25.70585	-634.33679	725.53467	26.29946	-639.70386	-752.54053	-3.80409	500.17035	689.86853	-5.13363	510.09314	-57.95637	1332.26721	-924.37915	
3753	37.520	-844.99847	25.15514	-634.44403	724.87573	25.87444	-639.97253	-753.09601	-3.65962	500.15161	689.08704	-4.83955	510.01132	-58.27176	1331.71619	-924.81244	
3754	37.530	-845.55682	24.98194	-634.52704	724.23907	25.47665	-639.89398	-753.55756	-3.28647	500.11298	688.50891	-4.65655	509.87262	-58.73695	1331.27356	-925.56543	
3755	37.540	-846.18134	24.80258	-634.59564	723.80988	25.21964	-639.91077	-753.92877	-2.97821	500.18533	687.82263	-4.37851	509.89789	-59.15804	1330.93030	-926.03699	
3756	37.550	-846.93054	24.35811	-634.66907	723.57001	25.08676	-640.05994	-754.61670	-2.68170	500.15115	687.40259	-4.13187	509.77228	-60.47982	1330.41321	-927.10986	
3757	37.560	-847.30109	23.88210	-634.86145	723.09308	24.59110	-640.14075	-755.17609	-2.51817	499.97336	686.99231	-3.75548	509.77289	-60.63753	1329.88562	-928.00146	
3758	37.570	-847.55548	23.40405	-635.09753	722.50726	24.09703	-640.29535	-756.22351	-1.49134	498.94550	686.46686	-3.63320	509.69833	-61.14888	1329.43884	-929.30615	
3759	37.580	-847.88605	23.14817	-635.11420	722.22162	23.78137	-640.13110	-756.09900	-1.87257	499.78867	686.02081	-3.54296	509.60483	-61.34599	1329.03247	-930.15869	
3760	37.590	-848.18121	22.72455	-634.98486	721.73480	23.49032	-640.19519	-756.29016	-1.66571	499.85886	685.52625	-3.27340	509.44031	-61.71815	1328.27332	-931.33685	
3761	37.600	-848.55194	22.50023	-634.97882	721.23962	23.22438	-640.38983	-756.62164	-1.37986	499.73749	685.38489	-2.90047	509.35651	-61.93577	1327.81958	-932.10297	
3762	37.610	-848.87000	22.30863	-635.15399	720.93024	22.92857	-640.49176	-756.99054	-1.10504	499.72501	685.16321	-2.69066	509.27261	-62.14332	1327.29138	-932.69067	
3763	37.620	-849.14069	22.01988	-635.26044	720.53455	22.40037	-640.77563	-757.35315	-0.86188	499.77850	684.96490	-2.51586	509.22723	-62.67721	1326.95789	-933.34326	
3764	37.630	-849.41345	21.61611	-635.50067	720.27216	22.05100	-640.84320	-757.61096	-0.72148	499.73969	685.05023	-1.98210	509.58569	-62.73875	1326.19763	-934.19067	
3765	37.640	-849.87915	21.08153	-635.45392	720.06952	21.68827	-640.83630	-757.91589	-0.50030	499.59811	684.61761	-1.71591	509.41312	-63.04527	1325.87036	-934.33893	
3766	37.650	-850.30371	20.64378	-635.48407	719.94745	21.45793	-640.89246	-758.16949	-0.19026	499.48810	684.38837	-1.54926	509.28360	-63.27512	1325.43542	-934.84436	
3767	37.660	-850.49139	20.31907	-635.55304	719.87726	21.23038	-640.96826	-758.38617	0.13956	499.38318	684.05988	-1.35256	509.09875	-63.55235	1324.79846	-935.49219	
3768	37.670	-850.65875	19.92947	-635.66132	719.60260	20.69943	-641.12897	-758.62738	0.44980	499.29361	683.71930	-1.07303	509.00012	-64.17400	1324.09473	-936.42480	
3769	37.680	-850.74725	19.64437	-635.90088	719.37030	20.00124	-641.44574	-758.70911	0.69488	499.19244	683.52417	-0.77705	508.98456	-63.79455	1323.49927	-937.64984	
3770	37.690	-850.96210	19.14119	-636.03564	719.27625	19.78814	-641.53888	-758.85681	0.93065	499.07330	683.22217	-0.49888	508.56680	-63.75519	1323.05945	-938.46509	
3771	37.700	-851.12878	18.79744	-636.10510	719.24939	19.45275	-641.52240	-758.83307	1.25545	499.00888	683.38245	-0.20564	508.66373	-64.00227	1322.35095	-940.13361	
3772	37.710	-851.16882	18.50781	-636.24677	719.19159	19.11415	-641.59320	-758.83502	1.56069	498.86823	683.45532	0.06215	508.50119	-64.06798	1321.71533	-940.80554	
3773	37.720	-851.04291	18.19531	-636.27838	719.35748	18.74633	-641.54565	-758.78369	1.79749	498.80466	683.50739	0.42325	508.42026	-64.00359	1321.26221	-942.38562	
3774	37.730	-850.92749	17.73795	-636.39447	719.21484	18.57913	-641.69916	-758.79755	1.94350	498.71973	683.43976	0.79895	508.39313	-64.40746	1320.79468	-943.13855	
3775	37.740	-850.83795	17.31709	-636.72040	719.04602	18.05765	-641.89459	-758.85974	2.35562	498.52185	683.37616	0.95927	508.30093	-63.96085	1320.12463	-944.11578	
3776	37.750	-850.95013	16.50332	-636.75598	719.06720	17.34251	-642.12775	-758.69702	2.40458	498.37253	683.29486	1.21851	508.23547	-64.02862	1319.38281	-944.82965	
3777	37.760	-851.06128	15.89659	-636.77600	719.12823	16.84613	-642.14087	-758.93536	2.93978	498.31595	683.37317	1.44335	508.16370	-64.27897	1318.75708	-945.14923	
3778	37.770	-851.02087	15.45280	-636.84326	719.06421	16.65342	-642.14984	-758.96320	3.33505	498.13162	683.05548	1.75736	508.02579	-64.62557	1318.08350	-945.79877	
3779	37.780	-850.93561	15.24587	-636.78912	719.11304	16.46010	-642.17365	-758.90460	3.61856	498.03729	683.00928	2.29782	507.94641	-64.58298	1317.65076	-946.70734	
3780	37.790	-850.81671	14.90481	-637.05023	719.19336	15.96704	-642.29559	-758.85291	3.83897	497.95163	683.22644	2.64596	507.82028	-64.62048	1317.01672	-947.35260	
3781	37.800	-850.74219	14.47777	-637.40161	719.12164	15.16672	-642.58624	-758.85437	4.10588	497.87607	683.38049	2.88494	507.71729	-64.19477	1316.32312	-948.39136	
3782	37.810	-850.65765	13.93766	-637.47900	719.20032	14.67708	-642.68805	-758.80951	4.41871	497.76682	683.44104	3.11377	507.63400	-64.56915	1315.53491	-949.81079	
3783	37.820	-850.48004	13.40744	-637.52301	719.31348	14.37053	-642.83423	-758.78979	4.75869	497.65598	683.41406	3.52160	507.50635	-63.99878	1314.86230	-951.06610	
3784	37.830	-850.30585	13.04140	-637.57849	719.62103	14.04615	-642.96429	-758.66632	5.14718	497.58743	683.98395	3.67441	507.31485	-63.49058	1314.14758	-952.15887	
3785	37.840	-850.04517	12.34718	-637.40747	720.02838	13.52470	-643.01697	-758.35974	5.59369	497.45477	684.14929	4.05149	507.30072	-63.46502	1313.47229	-953.86658	
3786	37.850	-849.80426	11.77544	-637.37549	720.39075	13.13363	-643.02960	-758.06940	6.03226	497.33038	684.66095	4.55744	507.15103	-63.32915	1312.97559	-954.93756	
3787	37.860	-849.67267	11.34691	-637.85394	720.62732	12.70572	-643.08771	-757.72998	6.32351	497.20071	684.85150	4.89465	507.06592	-62.94336	1312.31177	-955.75616	
3788	37.870	-849.43073	11.09338	-637.75562	720.78125	12.06474	-643.39001	-757.38068	6.43342	497.08258	684.91840	5.13817	506.96283	-62.87751	1311.51672	-956.76709	
3789	37.880	-849.20215	10.58070	-637.98798	720.86505	11.56763	-643.45074	-757.02991	6.59872	496.98102	685.01001	5.47991	506.98602	-62.64436	1310.55859	-957.58600	
3790	37.890	-848.78149	10.14027	-638.48590	721.02069	11.18255	-643.57025	-756.74805	6.91837	496.93372	685.09375	5.77174	506.89780	-62.57639	1310.05481	-958.15967	
3791	37.900	-848.49799	9.85581	-638.80493	721.46564	10.66552	-643.64453	-756.45825	7.32542	496.75754	685.66864	6.26098	506.58093	-61.74394	1309.29932	-959.34351	
3792	37.910	-848.09540	9.60732	-638.84906	721.97620	10.31058	-643.76074	-756.06122	7.66305	496.63248	686.16809	6.67854	506.49127	-61.59517	1308.72888	-959.92987	
3793	37.920	-847.69403	8.99331	-638.80487	722.18756	9.91959	-643.95850	-755.80933	8.06357	496.58249	686.69873	7.00084	506.34052	-61.15201	1308.15955	-960.97217	
3794	37.930	-847.48114	8.32944	-638.68451	722.57202	9.29966	-644.03967	-755.54871	8.40915	496.53763	687.08643	7.21051	506.27838	-61.11785	1307.48022	-961.96198	
3795	37.940	-847.14160	7.50049	-638.58270	723.05591	8.77901	-644.08423	-755.11920	8.65415	496.47513	687.21411	7.43589	506.25497	-60.82259	1306.57959	-963.33167	
3796	37.950	-846.74109	7.06430	-638.48279	723.42517	8.27359	-644.18964	-754.71216	8.94626	496.33093	687.49945	7.71586	506.06503	-60.42359	1305.83789	-964.44336	
3797	37.960	-846.38135	6.73210	-638.65802	723.85889	7.78378	-644.31415	-754.25635	9.33473	496.17102	687.90820	8.22124	506.06354	-59.50628	1305.25793	-965.71112	
3798	37.970	-845.62274	6.30587	-639.27063	724.24158	7.48180	-644.48798	-753.76660	9.73367	496.00760	688.47675	8.54204	505.79559	-59.23735	1304.71448	-966.92944	
3799	37.980	-845.27002	5.67676	-639.42310	724.59967	7.09229	-644.61011	-753.31482	10.00252	495.95169	689.02417	8.88746	505.71710	-59.25039	1303.79797	-968.02429	
3800	37.990	-844.95935	5.28347	-639.64746	725.31287	6.34927	-644.64722	-752.96863	10.26414	495.79041	689.27466	9.16461	505.60822	-58.33593	1303.06885	-969.04767	
3801	38.000	-844.49139	4.99994	-639.57501	725.63818	5.98452	-644.73920	-752.47827	10.57055	495.74329	689.75348	9.51653	505.43304	-58.09948	1302.35999	-969.79724	
3802	38.010	-844.01550	4.48141	-639.53436	726.18988	5.63746	-644.86096	-751.77246	10.99100	495.57440	690.40320	10.01504	505.40131	-57.24521	1301.48633	-970.84747	
3803	38.020	-843.35071	3.92645	-639.69916	726.64319	4.98739	-645.28003	-751.46326	11.26635	495.46689	690.92944	10.29644	505.27814	-56.98386	1300.78650	-971.52887	
3804	38.030	-842.92224	3.36330	-639.68707	727.05695	4.55192	-645.38177	-751.00317	11.69837	495.35303	691.26929	10.51202	505.15976	-56.84034	1300.27051	-972.79016	
3805	38.040	-842.26025	2.79265	-639.87512	727.40710	4.11580	-645.34698	-750.55237	12.08732	495.18271	691.61719	10.74910	505.08084	-56.20701	1299.68933	-973.77289	
